<?xml version="1.0" encoding="UTF-8" standalone="no"?>
<!-- Created with Inkscape (http://www.inkscape.org/) -->

<svg
   xmlns:dc="http://purl.org/dc/elements/1.1/"
   xmlns:cc="http://creativecommons.org/ns#"
   xmlns:rdf="http://www.w3.org/1999/02/22-rdf-syntax-ns#"
   xmlns:svg="http://www.w3.org/2000/svg"
   xmlns="http://www.w3.org/2000/svg"
   xmlns:sodipodi="http://sodipodi.sourceforge.net/DTD/sodipodi-0.dtd"
   xmlns:inkscape="http://www.inkscape.org/namespaces/inkscape"
   width="210mm"
   height="110mm"
   viewBox="0 0 210 110"
   version="1.1"
   id="svg8"
   inkscape:version="0.92.4 (5da689c313, 2019-01-14)"
   sodipodi:docname="firma.svg">
  <defs
     id="defs2" />
  <sodipodi:namedview
     id="base"
     pagecolor="#ffffff"
     bordercolor="#666666"
     borderopacity="1.0"
     inkscape:pageopacity="0.0"
     inkscape:pageshadow="2"
     inkscape:zoom="0.7"
     inkscape:cx="484.54179"
     inkscape:cy="294.86754"
     inkscape:document-units="mm"
     inkscape:current-layer="layer1"
     showgrid="false"
     inkscape:window-width="1920"
     inkscape:window-height="1001"
     inkscape:window-x="-9"
     inkscape:window-y="-9"
     inkscape:window-maximized="1" />
  <metadata
     id="metadata5">
    <rdf:RDF>
      <cc:Work
         rdf:about="">
        <dc:format>image/svg+xml</dc:format>
        <dc:type
           rdf:resource="http://purl.org/dc/dcmitype/StillImage" />
        <dc:title></dc:title>
      </cc:Work>
    </rdf:RDF>
  </metadata>
  <g
     inkscape:label="Livello 1"
     inkscape:groupmode="layer"
     id="layer1"
     transform="translate(0,-187)">
    <path
       style="fill:#000000;stroke-width:0.42022699"
       d="m 88.074356,293.43868 c -0.542829,-0.57781 -1.389654,-1.05057 -1.881839,-1.05057 -0.880838,0 -2.78732,-1.733 -4.147948,-3.7705 -0.381613,-0.57144 -0.693846,-0.89579 -0.693846,-0.72076 0,0.17504 -0.596675,-0.36135 -1.32595,-1.19195 -0.729275,-0.83059 -2.052989,-1.88107 -2.941589,-2.3344 -0.888599,-0.45332 -1.615638,-1.0095 -1.615638,-1.23592 0,-0.22643 -0.209853,-0.4117 -0.466343,-0.4117 -0.256489,0 -2.194787,-1.53238 -4.307326,-3.40529 -2.112541,-1.87292 -4.408291,-3.69713 -5.101666,-4.05379 -0.693374,-0.35668 -2.051274,-1.34221 -3.017554,-2.19009 -0.966278,-0.84786 -2.95185,-2.26479 -4.412383,-3.14872 -1.460532,-0.88393 -2.844613,-1.82145 -3.075738,-2.08338 -0.658664,-0.74645 -4.337874,-2.95283 -7.564086,-4.53607 -1.617874,-0.79397 -3.603447,-1.85711 -4.412384,-2.36252 -0.808937,-0.50542 -2.510855,-1.29836 -3.782043,-1.76208 -1.271187,-0.46373 -3.751955,-1.59685 -5.512818,-2.51808 -1.760866,-0.92122 -3.484558,-1.67494 -3.830428,-1.67494 -0.345872,0 -1.079842,-0.35352 -1.631041,-0.78559 -0.551199,-0.43207 -2.042245,-1.21109 -3.31343,-1.73115 -1.271188,-0.52008 -2.878556,-1.18559 -3.571931,-1.47893 -0.693374,-0.29335 -1.733436,-0.67637 -2.311248,-0.85118 -2.222974,-0.67248 -12.1124555,-5.73665 -12.9286049,-6.62042 -1.2294892,-1.33134 -1.8107462,-3.75171 -1.1971094,-4.98478 0.2702503,-0.54306 1.4316937,-1.59227 2.5809853,-2.33158 1.1492916,-0.73932 2.3141468,-1.53939 2.588568,-1.77793 0.274421,-0.23856 1.219931,-0.61463 2.101134,-0.83573 0.881205,-0.22112 3.965967,-0.98621 6.855027,-1.70022 4.988234,-1.23282 5.333387,-1.38761 6.851895,-3.0729 0.879475,-0.97608 2.359354,-3.03899 3.288615,-4.58424 0.92926,-1.54525 2.122348,-3.27653 2.651305,-3.84729 0.528958,-0.57075 1.407487,-1.67023 1.952291,-2.44328 4.702681,-6.67293 18.234334,-20.62747 21.680848,-22.35841 1.197049,-0.6012 2.292221,-1.2804 2.433711,-1.50934 0.358587,-0.5802 3.643032,-2.02557 7.28189,-3.2045 2.935585,-0.95106 3.152111,-0.96522 5.042724,-0.32966 2.652292,0.89162 2.774877,1.02314 3.651256,3.91762 0.841959,2.7808 0.724749,8.76328 -0.218509,11.15282 -0.273706,0.69339 -0.574513,2.30075 -0.668464,3.57193 -0.09394,1.2712 -0.377557,2.94325 -0.630243,3.71569 -0.759006,2.32018 0.108907,2.43256 2.277269,0.29487 1.06525,-1.05018 2.126847,-1.90942 2.359103,-1.90942 0.689618,0 5.057819,-4.66059 6.574771,-7.01486 1.825151,-2.8326 4.329016,-5.59195 5.074182,-5.59195 0.323192,0 0.959501,0.61151 1.414022,1.35892 0.938393,1.54306 0.891739,2.69149 -0.439847,10.82767 -1.548348,9.4606 -1.611205,10.20238 -0.970355,11.45118 0.747202,1.45605 1.531132,1.46747 2.469091,0.0359 0.403493,-0.61581 1.512581,-1.91544 2.464634,-2.88807 3.191957,-3.26095 3.88914,-4.17304 5.288155,-6.91818 0.765623,-1.50231 1.933119,-3.52194 2.594439,-4.4881 0.66131,-0.96614 1.20239,-1.95003 1.20239,-2.18641 0,-1.022 1.03617,-2.57047 1.72004,-2.57047 1.14828,0 1.35912,1.47276 0.65104,4.54756 -1.43888,6.2482 -2.82623,13.96617 -2.58165,14.36192 0.39926,0.64601 4.3888,0.50307 11.5567,-0.41407 3.58243,-0.45838 9.4446,-1.02259 13.02703,-1.25381 7.72818,-0.49878 20.21132,-1.59312 21.54103,-1.88838 0.88078,-0.19559 3.89037,-0.49331 15.22885,-1.50654 2.54238,-0.22718 6.98628,-0.51623 9.87534,-0.64231 2.88906,-0.12611 7.14385,-0.50535 9.4551,-0.84282 2.31125,-0.33746 5.70182,-0.8087 7.53459,-1.04719 5.80314,-0.75514 10.01039,-1.5864 10.49068,-2.07277 0.7099,-0.71888 -2.25304,-3.24113 -4.22895,-3.59995 -0.88536,-0.16078 -2.36614,-0.69225 -3.29063,-1.18103 l -1.68092,-0.8887 2.6589,-0.12595 c 3.2493,-0.1539 5.1826,0.76836 9.03045,4.30787 1.4278,1.31338 1.37299,2.73652 -0.1331,3.45583 -1.55681,0.74353 -7.06664,1.81662 -9.32954,1.81702 -1.08656,1.9e-4 -3.07214,0.28879 -4.41238,0.64134 -3.66238,0.96337 -14.02184,2.12387 -21.97737,2.46197 -2.65793,0.11293 -6.62907,0.39926 -8.82476,0.63621 -10.85446,1.17141 -16.08333,1.59012 -37.40022,2.99495 -3.58244,0.23608 -7.45903,0.60508 -8.61466,0.81999 -1.15562,0.21491 -3.80305,0.51342 -5.88317,0.66335 -5.2296,0.37696 -5.47219,0.58119 -6.0623,5.10387 -0.97837,7.49845 -1.337366,10.51754 -1.738915,14.62376 -0.226019,2.31125 -0.592251,5.43144 -0.813859,6.93375 -0.221607,1.50231 -0.693996,5.568 -1.04976,9.03488 -0.355759,3.46687 -0.940064,8.19442 -1.298455,10.50567 -0.35839,2.31125 -0.921689,6.18785 -1.251772,8.61466 -0.33008,2.42681 -0.793796,5.26333 -1.030477,6.3034 -0.236684,1.04006 -0.715028,3.20163 -1.062989,4.80349 -0.347961,1.60185 -0.83971,3.16194 -1.092775,3.46687 -0.750413,0.90419 -2.640337,0.65206 -3.719026,-0.49616 z m 2.083355,-3.53871 c 0.533929,-0.99766 0.885654,-3.28063 2.939245,-19.07798 0.23496,-1.80744 0.50549,-3.4148 0.60118,-3.57193 0.09569,-0.15708 0.476143,-2.93312 0.845456,-6.16886 1.214291,-10.63906 1.976751,-17.13701 2.78594,-23.74282 0.438835,-3.58244 0.897626,-7.7031 1.019538,-9.15704 l 0.221649,-2.64352 -3.04199,0.24933 c -6.603871,0.54124 -14.427283,1.07139 -24.263454,1.64421 -5.662558,0.32975 -10.579214,0.70115 -10.925901,0.82532 -0.346688,0.1242 -4.694638,0.62144 -9.662117,1.10505 -13.389931,1.30355 -20.624476,2.27853 -23.012298,3.10128 -1.380571,0.4757 -1.58992,0.72786 -1.702874,2.05105 -0.150821,1.76686 0.772908,2.49643 2.970476,2.34613 0.74832,-0.0511 2.012984,-0.0591 2.810365,-0.0176 2.033811,0.10594 1.21019,0.73636 -2.054784,1.57281 -2.167186,0.5552 -3.010792,0.59782 -4.283803,0.21641 l -1.585179,-0.47492 -0.124822,-2.61548 -0.124821,-2.61545 -1.258915,0.14866 c -2.796958,0.33029 -7.305729,1.73374 -8.776598,2.73192 -0.859139,0.58301 -2.261903,1.28144 -3.117252,1.55203 -2.094178,0.66251 -4.28026,2.14921 -4.2837844,2.91331 -0.00365,0.80239 3.2448143,3.79743 5.0869684,4.69005 0.783023,0.3794 3.759951,1.84494 6.615392,3.25676 2.855443,1.4118 5.413535,2.56691 5.684653,2.56691 0.271114,0 1.540921,0.54373 2.821795,1.20829 1.280873,0.66456 2.788474,1.35122 3.350231,1.52593 0.561749,0.1747 1.494125,0.64033 2.071937,1.03471 0.577812,0.39439 1.948802,0.96147 3.046645,1.26017 1.097843,0.29869 1.996079,0.70762 1.996079,0.90869 0,0.20109 0.28622,0.36562 0.636042,0.36562 0.349824,0 0.964405,0.17796 1.365738,0.39547 0.401334,0.21752 3.377126,1.66971 6.612873,3.22709 5.963203,2.87013 17.442825,9.99495 18.155315,11.2681 0.213921,0.38226 1.564018,1.31016 3.000216,2.06201 1.436201,0.75185 3.976869,2.60184 5.645929,4.1111 4.525422,4.09213 8.027148,6.62807 9.64395,6.98411 1.58207,0.3484 3.724363,1.96992 4.488196,3.39716 0.268577,0.50185 0.742169,0.91244 1.052426,0.91244 0.310253,0 0.799512,0.28365 1.087236,0.63034 0.698472,0.84161 1.143366,0.79428 1.663129,-0.17689 z M 37.857228,228.72949 c 2.773498,-0.33709 5.975272,-0.80791 7.115049,-1.04628 1.139778,-0.23837 5.110922,-0.62569 8.824767,-0.86073 3.713845,-0.23504 8.832567,-0.61703 11.37494,-0.84887 6.85787,-0.62538 16.525385,-1.30328 18.857317,-1.32231 l 2.048237,-0.0167 -0.263351,-2.24072 c -0.199255,-1.69536 0.09414,-4.01037 1.205467,-9.51167 1.597946,-7.91014 1.79068,-10.00243 0.921389,-10.00243 -0.635307,0 -4.598456,4.30904 -5.838385,6.34795 -1.138425,1.87199 -5.870315,6.49991 -7.692222,7.52321 -2.758618,1.54942 -4.962937,0.78251 -4.975157,-1.73092 -0.0038,-0.78344 0.509219,-3.36705 1.140056,-5.74132 1.567841,-5.90088 1.718543,-13.35698 0.322684,-15.96517 -0.690434,-1.29008 -2.214752,-1.43955 -5.14255,-0.50423 -3.299739,1.05413 -7.300447,3.23059 -10.639441,5.78802 -3.084806,2.36274 -9.261459,8.10749 -10.837755,10.07992 -0.912373,1.14166 -6.884836,7.74682 -8.967347,9.9173 -0.24484,0.25519 -1.001249,1.49841 -1.680908,2.76273 -0.679657,1.2643 -1.944873,2.99137 -2.811591,3.83792 -1.138695,1.11219 -1.575852,1.894 -1.575852,2.81822 0,1.39492 0.71179,1.82113 2.521362,1.50977 0.577812,-0.0994 3.319793,-0.45658 6.093291,-0.79367 z m 60.831532,-5.95615 c 0.677647,-0.4188 1.97344,-3.64818 1.98317,-4.94244 0.005,-0.67517 0.27151,-1.52612 0.59207,-1.89101 0.61478,-0.69979 0.45639,-3.39491 -0.19952,-3.39491 -0.19895,0 -0.65005,0.55753 -1.00243,1.23897 -0.352376,0.68143 -1.20819,2.07985 -1.901809,3.10759 -0.693613,1.02773 -1.261117,2.0213 -1.261117,2.20791 0,0.18658 -0.592323,0.95039 -1.316269,1.6973 -1.81918,1.87693 -1.429205,2.88459 0.968009,2.50126 0.956387,-0.15295 1.918442,-0.38903 2.137896,-0.52467 z m 24.06991,22.57457 c -0.13615,-0.22029 -1.49465,-0.29618 -3.07145,-0.17158 -5.69723,0.45021 -7.88643,-1.41795 -7.52851,-6.42444 0.20238,-2.83074 1.72556,-6.14535 3.75909,-8.18021 0.63747,-0.63787 2.24484,-1.55584 3.57193,-2.03991 1.32709,-0.48409 2.82783,-1.09072 3.33498,-1.34808 1.18741,-0.60259 3.91397,-0.23162 5.91291,0.8045 1.22288,0.63384 1.83387,0.72455 2.76628,0.41064 0.80287,-0.27029 1.52896,-0.25151 2.20619,0.057 0.8684,0.39567 1.00946,0.75136 1.00946,2.54528 0,1.14695 -0.18911,2.20222 -0.42023,2.34505 -0.23113,0.14279 -0.42022,0.62006 -0.42022,1.06047 0,0.4404 -0.4902,1.67877 -1.08935,2.75194 -1.69194,3.03054 -0.16121,3.51657 3.4006,1.07972 1.50734,-1.03126 1.89658,-1.70233 3.7695,-6.4988 2.06323,-5.28379 2.10857,-5.35475 3.73228,-5.84122 1.56539,-0.46901 1.69326,-0.43482 2.68494,0.71809 0.86349,1.00386 1.00608,1.52266 0.8352,3.03869 -0.16418,1.45654 -0.62199,2.27775 -2.25217,4.03983 -1.12537,1.21642 -2.42431,2.39198 -2.88656,2.61238 -0.46226,0.22039 -0.89877,0.80995 -0.97002,1.31014 -0.2196,1.5416 1.26539,1.58891 4.27731,0.13628 3.2077,-1.54705 3.9413,-2.7304 4.34008,-7.00081 0.19633,-2.10249 0.58766,-3.34505 1.53178,-4.86384 1.1216,-1.80426 1.41711,-2.02537 2.55799,-1.9139 1.23014,0.12023 1.29602,0.22329 1.42221,2.22604 0.1955,3.10251 -0.2121,4.59861 -1.83047,6.71878 -0.79945,1.04735 -1.45356,2.09174 -1.45356,2.32086 0,0.22912 0.67731,0.41659 1.50513,0.41659 1.09118,0 1.98689,-0.39484 3.25676,-1.43568 2.11582,-1.73416 4.2108,-5.60289 3.83813,-7.08769 -0.33501,-1.33482 0.81722,-4.08344 1.71181,-4.08344 0.90351,0 2.26327,1.6536 2.28101,2.77394 0.008,0.48561 -0.48882,1.80933 -1.10335,2.9416 -1.79014,3.29827 -3.08494,6.0134 -3.08494,6.46898 0,0.85647 1.53275,0.37797 3.78204,-1.18068 1.65116,-1.14417 2.61129,-2.20535 3.36183,-3.71562 0.5778,-1.16274 1.46439,-2.67647 1.97017,-3.36389 0.50578,-0.68741 1.27377,-2.27707 1.70663,-3.53259 0.59407,-1.72307 1.01301,-2.31575 1.7087,-2.4173 0.53008,-0.0773 1.02428,0.13294 1.16324,0.49503 0.40448,1.05405 -0.68024,6.97402 -1.91954,10.47614 -0.98278,2.77723 -1.0706,3.34286 -0.54995,3.54266 0.3568,0.13691 1.05616,-0.23309 1.64898,-0.87243 0.56617,-0.61059 1.38722,-1.11016 1.82453,-1.11016 0.43732,0 0.90886,-0.35836 1.04788,-0.79635 0.31827,-1.00278 4.20085,-4.66661 4.94522,-4.66661 0.30517,0 0.98414,0.30069 1.50883,0.66821 0.75679,0.53007 0.85234,0.79067 0.46228,1.26068 -0.27045,0.32585 -0.89404,0.59404 -1.38577,0.59598 -0.56955,0.002 -2.25518,1.39349 -4.64405,3.83303 -5.77989,5.90245 -7.80625,6.28444 -7.80625,1.47155 0,-1.45565 -0.12262,-2.76933 -0.27264,-2.91928 -0.14993,-0.14993 -1.32394,0.77032 -2.60889,2.04506 -1.28494,1.27473 -2.81691,2.42068 -3.40434,2.54653 -0.58747,0.12595 -1.46784,0.42142 -1.95639,0.65676 -0.65932,0.31762 -1.22261,0.25505 -2.18532,-0.24279 -1.64578,-0.85107 -3.55712,-0.85396 -5.33972,-0.008 -1.08236,0.51361 -1.59397,0.55695 -2.27457,0.1927 -0.91959,-0.49214 -0.82371,-0.5195 -5.70097,1.62692 -2.48939,1.09556 -4.53122,1.23269 -6.41915,0.43113 -0.92488,-0.39268 -1.56036,-0.44946 -1.93712,-0.17306 -2.39639,1.75798 -3.07966,2.0463 -5.23476,2.20891 -1.30768,0.0986 -2.5667,0.39643 -2.79782,0.6617 -1.7294,1.98491 -5.62505,3.47095 -6.28782,2.39856 z m 1.92871,-4.45767 c 2.3097,-1.58076 3.11374,-2.38892 3.32652,-3.34353 0.15434,-0.6924 0.52015,-2.27354 0.81293,-3.51365 0.6233,-2.64007 0.7198,-2.53018 -3.41295,-3.8867 l -2.79215,-0.91647 -2.6708,1.45775 c -2.12528,1.16002 -2.9485,1.91784 -4.03039,3.71021 -0.74778,1.23884 -1.27988,2.33215 -1.18246,2.42957 0.0974,0.0974 -0.008,0.66523 -0.23523,1.26178 -0.45022,1.18414 0.0838,3.05229 1.26905,4.43933 0.54773,0.64097 1.12227,0.74861 3.26708,0.61203 2.29958,-0.14643 2.957,-0.40834 5.6484,-2.25032 z m 19.26238,-9.40742 c 0.6626,-1.23803 0.52116,-2.12876 -0.33798,-2.12876 -0.81101,0 -1.932,1.88425 -1.51879,2.55286 0.40666,0.65798 1.39896,0.43134 1.85677,-0.4241 z"
       id="path826"
       inkscape:connector-curvature="0" />
  </g>
</svg>
